<svg width="24" height="24" viewBox="0 0 24 24" fill="none" xmlns="http://www.w3.org/2000/svg">
<path d="M11.9725 22.4766H4.09416C3.81022 22.4766 3.55454 22.2995 3.44727 22.0367C3.34002 21.7738 3.4025 21.4695 3.6054 21.2709C4.04141 20.842 4.68676 20.0033 4.68542 19.5695C4.68526 19.5209 4.6771 19.5123 4.66475 19.5003C3.66948 18.5334 2.88706 17.3993 2.33926 16.1302C1.772 14.8161 1.48438 13.4183 1.48438 11.9759C1.48438 9.17446 2.57534 6.54065 4.55628 4.5598C6.53724 2.57896 9.17103 1.48804 11.9725 1.48804C14.774 1.48804 17.4078 2.57905 19.3888 4.56011C21.3697 6.54116 22.4607 9.17502 22.4607 11.9765C22.4607 14.778 21.3698 17.4173 19.3888 19.3986C17.4078 21.3801 14.7739 22.4766 11.9725 22.4766ZM5.55631 21.0469H11.9725C16.9852 21.0469 21.0633 16.9791 21.0633 11.9655C21.0633 6.95265 16.9852 2.87987 11.9725 2.87987C6.95987 2.87987 2.88174 6.96053 2.88174 11.973C2.88174 14.4515 3.86075 16.7689 5.63846 18.496C5.92834 18.7777 6.08197 19.1369 6.08277 19.5543C6.08377 20.0656 5.84572 20.625 5.55631 21.0469Z" fill="white"/>
<path d="M6.69336 11.5553C6.69336 11.9861 6.86452 12.3993 7.16919 12.704C7.47386 13.0087 7.88708 13.1799 8.31795 13.1799C8.74882 13.1799 9.16204 13.0087 9.46671 12.704C9.77138 12.3993 9.94255 11.9861 9.94255 11.5553C9.94255 11.1244 9.77138 10.7112 9.46671 10.4065C9.16204 10.1018 8.74882 9.93066 8.31795 9.93066C7.88708 9.93066 7.47386 10.1018 7.16919 10.4065C6.86452 10.7112 6.69336 11.1244 6.69336 11.5553Z" fill="white"/>
<path d="M14.2402 11.5553C14.2402 11.9861 14.4114 12.3993 14.7161 12.704C15.0207 13.0087 15.434 13.1799 15.8648 13.1799C16.2957 13.1799 16.7089 13.0087 17.0136 12.704C17.3183 12.3993 17.4894 11.9861 17.4894 11.5553C17.4894 11.1244 17.3183 10.7112 17.0136 10.4065C16.7089 10.1018 16.2957 9.93066 15.8648 9.93066C15.434 9.93066 15.0207 10.1018 14.7161 10.4065C14.4114 10.7112 14.2402 11.1244 14.2402 11.5553Z" fill="white"/>
</svg>
