<svg width="16" height="16" viewBox="0 0 16 16" fill="none" xmlns="http://www.w3.org/2000/svg">
<path d="M9.49796 12.0006C9.22113 12.0006 8.99805 11.7775 8.99805 11.5007V5.99894C8.99805 5.7221 9.22113 5.49902 9.49796 5.49902C9.7748 5.49902 9.99788 5.7221 9.99788 5.99894V11.498C9.99788 11.7749 9.7748 12.0006 9.49796 12.0006Z" fill="#34323E"/>
<path d="M6.49796 12.0006C6.22113 12.0006 5.99805 11.7775 5.99805 11.5007V5.99894C5.99805 5.7221 6.22113 5.49902 6.49796 5.49902C6.7748 5.49902 6.99788 5.7221 6.99788 5.99894V11.498C6.99788 11.7749 6.7748 12.0006 6.49796 12.0006Z" fill="#34323E"/>
<path d="M14.5004 3.49934H12.0008V2.4995C12.0008 1.67169 11.3343 0.999756 10.5118 0.999756H5.49924C4.67143 0.999756 3.9995 1.67169 3.9995 2.4995V3.49934H1.49992C1.22308 3.49934 1 3.72242 1 3.99925C1 4.27609 1.22308 4.49917 1.49992 4.49917H14.5004C14.7773 4.49917 15.0003 4.27609 15.0003 3.99925C15.0003 3.72242 14.7773 3.49934 14.5004 3.49934ZM4.99933 2.4995C4.99933 2.22536 5.2251 1.99959 5.49924 1.99959H10.5118C10.786 1.99959 11.001 2.21998 11.001 2.4995V3.49934H4.99933V2.4995Z" fill="#34323E"/>
<path d="M11.5005 15.0001H4.5017C3.67388 15.0001 3.00195 14.3282 3.00195 13.5004V5.99357C3.00195 5.71673 3.22503 5.49365 3.50187 5.49365C3.7787 5.49365 4.00179 5.71673 4.00179 5.99357V13.5004C4.00179 13.7772 4.22755 14.0003 4.5017 14.0003H11.5032C11.78 14.0003 12.0031 13.7772 12.0031 13.5004V6.01238C12.0031 5.73555 12.2262 5.51247 12.503 5.51247C12.7799 5.51247 13.003 5.73555 13.003 6.01238V13.5004C13.0003 14.3255 12.3283 15.0001 11.5005 15.0001Z" fill="#34323E"/>
</svg>
