<svg width="16" height="16" viewBox="0 0 16 16" fill="none" xmlns="http://www.w3.org/2000/svg">
<path d="M14.5 5.7135C14.3674 5.7135 14.2402 5.76618 14.1464 5.85995C14.0527 5.95371 14 6.08089 14 6.2135V13.5C14 13.6326 13.9473 13.7598 13.8536 13.8536C13.7598 13.9473 13.6326 14 13.5 14H2.5C2.36739 14 2.24021 13.9473 2.14645 13.8536C2.05268 13.7598 2 13.6326 2 13.5V2.5C2 2.36739 2.05268 2.24021 2.14645 2.14645C2.24021 2.05268 2.36739 2 2.5 2H9.2125C9.34511 2 9.47229 1.94732 9.56605 1.85355C9.65982 1.75979 9.7125 1.63261 9.7125 1.5C9.7125 1.36739 9.65982 1.24021 9.56605 1.14645C9.47229 1.05268 9.34511 1 9.2125 1H2.5C2.10218 1 1.72064 1.15804 1.43934 1.43934C1.15804 1.72064 1 2.10218 1 2.5V13.5C1 13.8978 1.15804 14.2794 1.43934 14.5607C1.72064 14.842 2.10218 15 2.5 15H13.5C13.8978 15 14.2794 14.842 14.5607 14.5607C14.842 14.2794 15 13.8978 15 13.5V6.2135C15 6.08089 14.9473 5.95371 14.8536 5.85995C14.7598 5.76618 14.6326 5.7135 14.5 5.7135Z" fill="#34323E"/>
<path d="M3.61967 10.8815C3.57016 10.9846 3.55115 11.0997 3.56489 11.2132C3.57863 11.3268 3.62454 11.434 3.69721 11.5224C3.76988 11.6107 3.86628 11.6764 3.97506 11.7118C4.08383 11.7471 4.20045 11.7507 4.31117 11.722L6.62367 11.1225L14.8522 2.89445L12.7307 0.772949L4.53867 8.96495L3.61967 10.8815ZM5.36667 9.55145L12.7307 2.18745L13.4377 2.89445L6.10967 10.2225L4.89367 10.5375L5.36667 9.55145Z" fill="#34323E"/>
</svg>
